<mxfile host="app.diagrams.net" modified="2020-10-07T01:24:59.890Z" agent="5.0 (X11)" etag="MFRcPp2y-VB1gtGhbZUn" version="13.7.7" type="github">
  <diagram id="AEGiaDIyHMBQQB-s0C2s" name="Page-1">
    <mxGraphModel dx="1422" dy="841" grid="1" gridSize="10" guides="1" tooltips="1" connect="1" arrows="1" fold="1" page="1" pageScale="1" pageWidth="827" pageHeight="1169" math="0" shadow="0">
      <root>
        <mxCell id="0" />
        <mxCell id="1" parent="0" />
        <mxCell id="vj-xKCWtHXIhKeIByCAS-1" value="cliente" style="swimlane;fontStyle=0;childLayout=stackLayout;horizontal=1;startSize=26;fillColor=none;horizontalStack=0;resizeParent=1;resizeParentMax=0;resizeLast=0;collapsible=1;marginBottom=0;" vertex="1" parent="1">
          <mxGeometry x="100" y="110" width="140" height="130" as="geometry" />
        </mxCell>
        <mxCell id="vj-xKCWtHXIhKeIByCAS-2" value="id_cliente(PK)&#xa;&#xa;" style="text;strokeColor=none;fillColor=none;align=left;verticalAlign=top;spacingLeft=4;spacingRight=4;overflow=hidden;rotatable=0;points=[[0,0.5],[1,0.5]];portConstraint=eastwest;" vertex="1" parent="vj-xKCWtHXIhKeIByCAS-1">
          <mxGeometry y="26" width="140" height="26" as="geometry" />
        </mxCell>
        <mxCell id="vj-xKCWtHXIhKeIByCAS-3" value="nombre_cliente" style="text;strokeColor=none;fillColor=none;align=left;verticalAlign=top;spacingLeft=4;spacingRight=4;overflow=hidden;rotatable=0;points=[[0,0.5],[1,0.5]];portConstraint=eastwest;" vertex="1" parent="vj-xKCWtHXIhKeIByCAS-1">
          <mxGeometry y="52" width="140" height="26" as="geometry" />
        </mxCell>
        <mxCell id="vj-xKCWtHXIhKeIByCAS-4" value="rut_cliente" style="text;strokeColor=none;fillColor=none;align=left;verticalAlign=top;spacingLeft=4;spacingRight=4;overflow=hidden;rotatable=0;points=[[0,0.5],[1,0.5]];portConstraint=eastwest;" vertex="1" parent="vj-xKCWtHXIhKeIByCAS-1">
          <mxGeometry y="78" width="140" height="26" as="geometry" />
        </mxCell>
        <mxCell id="vj-xKCWtHXIhKeIByCAS-9" value="direccion_cliente" style="text;strokeColor=none;fillColor=none;align=left;verticalAlign=top;spacingLeft=4;spacingRight=4;overflow=hidden;rotatable=0;points=[[0,0.5],[1,0.5]];portConstraint=eastwest;" vertex="1" parent="vj-xKCWtHXIhKeIByCAS-1">
          <mxGeometry y="104" width="140" height="26" as="geometry" />
        </mxCell>
        <mxCell id="vj-xKCWtHXIhKeIByCAS-33" style="edgeStyle=orthogonalEdgeStyle;rounded=0;orthogonalLoop=1;jettySize=auto;html=1;startArrow=ERmany;startFill=0;endArrow=ERone;endFill=0;" edge="1" parent="1" source="vj-xKCWtHXIhKeIByCAS-32" target="vj-xKCWtHXIhKeIByCAS-19">
          <mxGeometry relative="1" as="geometry" />
        </mxCell>
        <mxCell id="vj-xKCWtHXIhKeIByCAS-34" style="edgeStyle=orthogonalEdgeStyle;rounded=0;orthogonalLoop=1;jettySize=auto;html=1;entryX=1.005;entryY=-0.054;entryDx=0;entryDy=0;startArrow=ERmany;startFill=0;endArrow=ERone;endFill=0;entryPerimeter=0;" edge="1" parent="1" source="vj-xKCWtHXIhKeIByCAS-35" target="vj-xKCWtHXIhKeIByCAS-4">
          <mxGeometry relative="1" as="geometry">
            <mxPoint x="410" y="260" as="sourcePoint" />
            <mxPoint x="200" y="338.97" as="targetPoint" />
          </mxGeometry>
        </mxCell>
        <mxCell id="vj-xKCWtHXIhKeIByCAS-18" value="categoria" style="swimlane;fontStyle=0;childLayout=stackLayout;horizontal=1;startSize=26;fillColor=none;horizontalStack=0;resizeParent=1;resizeParentMax=0;resizeLast=0;collapsible=1;marginBottom=0;" vertex="1" parent="1">
          <mxGeometry x="101" y="596" width="140" height="104" as="geometry">
            <mxRectangle x="480" y="420" width="90" height="26" as="alternateBounds" />
          </mxGeometry>
        </mxCell>
        <mxCell id="vj-xKCWtHXIhKeIByCAS-19" value="id_categoria(PK)" style="text;strokeColor=none;fillColor=none;align=left;verticalAlign=top;spacingLeft=4;spacingRight=4;overflow=hidden;rotatable=0;points=[[0,0.5],[1,0.5]];portConstraint=eastwest;" vertex="1" parent="vj-xKCWtHXIhKeIByCAS-18">
          <mxGeometry y="26" width="140" height="26" as="geometry" />
        </mxCell>
        <mxCell id="vj-xKCWtHXIhKeIByCAS-20" value="nombre_categoria" style="text;strokeColor=none;fillColor=none;align=left;verticalAlign=top;spacingLeft=4;spacingRight=4;overflow=hidden;rotatable=0;points=[[0,0.5],[1,0.5]];portConstraint=eastwest;" vertex="1" parent="vj-xKCWtHXIhKeIByCAS-18">
          <mxGeometry y="52" width="140" height="26" as="geometry" />
        </mxCell>
        <mxCell id="vj-xKCWtHXIhKeIByCAS-21" value="descripcion_categoria" style="text;strokeColor=none;fillColor=none;align=left;verticalAlign=top;spacingLeft=4;spacingRight=4;overflow=hidden;rotatable=0;points=[[0,0.5],[1,0.5]];portConstraint=eastwest;" vertex="1" parent="vj-xKCWtHXIhKeIByCAS-18">
          <mxGeometry y="78" width="140" height="26" as="geometry" />
        </mxCell>
        <mxCell id="vj-xKCWtHXIhKeIByCAS-12" value="producto" style="swimlane;fontStyle=0;childLayout=stackLayout;horizontal=1;startSize=26;fillColor=none;horizontalStack=0;resizeParent=1;resizeParentMax=0;resizeLast=0;collapsible=1;marginBottom=0;" vertex="1" parent="1">
          <mxGeometry x="540" y="570" width="120" height="154" as="geometry" />
        </mxCell>
        <mxCell id="vj-xKCWtHXIhKeIByCAS-13" value="id_producto(PK)" style="text;strokeColor=none;fillColor=none;align=left;verticalAlign=top;spacingLeft=4;spacingRight=4;overflow=hidden;rotatable=0;points=[[0,0.5],[1,0.5]];portConstraint=eastwest;" vertex="1" parent="vj-xKCWtHXIhKeIByCAS-12">
          <mxGeometry y="26" width="120" height="26" as="geometry" />
        </mxCell>
        <mxCell id="vj-xKCWtHXIhKeIByCAS-32" value="id_categoria(FK)" style="text;strokeColor=none;fillColor=none;align=left;verticalAlign=top;spacingLeft=4;spacingRight=4;overflow=hidden;rotatable=0;points=[[0,0.5],[1,0.5]];portConstraint=eastwest;" vertex="1" parent="vj-xKCWtHXIhKeIByCAS-12">
          <mxGeometry y="52" width="120" height="26" as="geometry" />
        </mxCell>
        <mxCell id="vj-xKCWtHXIhKeIByCAS-24" value="nombre_producto" style="text;strokeColor=none;fillColor=none;align=left;verticalAlign=top;spacingLeft=4;spacingRight=4;overflow=hidden;rotatable=0;points=[[0,0.5],[1,0.5]];portConstraint=eastwest;" vertex="1" parent="vj-xKCWtHXIhKeIByCAS-12">
          <mxGeometry y="78" width="120" height="24" as="geometry" />
        </mxCell>
        <mxCell id="vj-xKCWtHXIhKeIByCAS-15" value="cantidad_producto" style="text;strokeColor=none;fillColor=none;align=left;verticalAlign=top;spacingLeft=4;spacingRight=4;overflow=hidden;rotatable=0;points=[[0,0.5],[1,0.5]];portConstraint=eastwest;" vertex="1" parent="vj-xKCWtHXIhKeIByCAS-12">
          <mxGeometry y="102" width="120" height="26" as="geometry" />
        </mxCell>
        <mxCell id="vj-xKCWtHXIhKeIByCAS-14" value="precio_unitario" style="text;strokeColor=none;fillColor=none;align=left;verticalAlign=top;spacingLeft=4;spacingRight=4;overflow=hidden;rotatable=0;points=[[0,0.5],[1,0.5]];portConstraint=eastwest;" vertex="1" parent="vj-xKCWtHXIhKeIByCAS-12">
          <mxGeometry y="128" width="120" height="26" as="geometry" />
        </mxCell>
        <mxCell id="vj-xKCWtHXIhKeIByCAS-36" value="fact_prod" style="swimlane;fontStyle=0;childLayout=stackLayout;horizontal=1;startSize=26;fillColor=none;horizontalStack=0;resizeParent=1;resizeParentMax=0;resizeLast=0;collapsible=1;marginBottom=0;" vertex="1" parent="1">
          <mxGeometry x="365" y="388" width="140" height="104" as="geometry" />
        </mxCell>
        <mxCell id="vj-xKCWtHXIhKeIByCAS-37" value="id_fact_prod(PK)" style="text;strokeColor=none;fillColor=none;align=left;verticalAlign=top;spacingLeft=4;spacingRight=4;overflow=hidden;rotatable=0;points=[[0,0.5],[1,0.5]];portConstraint=eastwest;" vertex="1" parent="vj-xKCWtHXIhKeIByCAS-36">
          <mxGeometry y="26" width="140" height="26" as="geometry" />
        </mxCell>
        <mxCell id="vj-xKCWtHXIhKeIByCAS-38" value="num_factura(FK)&#xa;" style="text;strokeColor=none;fillColor=none;align=left;verticalAlign=top;spacingLeft=4;spacingRight=4;overflow=hidden;rotatable=0;points=[[0,0.5],[1,0.5]];portConstraint=eastwest;" vertex="1" parent="vj-xKCWtHXIhKeIByCAS-36">
          <mxGeometry y="52" width="140" height="26" as="geometry" />
        </mxCell>
        <mxCell id="vj-xKCWtHXIhKeIByCAS-39" value="id_producto(FK)" style="text;strokeColor=none;fillColor=none;align=left;verticalAlign=top;spacingLeft=4;spacingRight=4;overflow=hidden;rotatable=0;points=[[0,0.5],[1,0.5]];portConstraint=eastwest;" vertex="1" parent="vj-xKCWtHXIhKeIByCAS-36">
          <mxGeometry y="78" width="140" height="26" as="geometry" />
        </mxCell>
        <mxCell id="vj-xKCWtHXIhKeIByCAS-43" style="edgeStyle=orthogonalEdgeStyle;rounded=0;orthogonalLoop=1;jettySize=auto;html=1;entryX=1;entryY=0.5;entryDx=0;entryDy=0;startArrow=ERmany;startFill=0;endArrow=ERone;endFill=0;" edge="1" parent="1" target="vj-xKCWtHXIhKeIByCAS-37">
          <mxGeometry relative="1" as="geometry">
            <mxPoint x="600" y="310" as="sourcePoint" />
            <mxPoint x="250.70000000000005" y="196.596" as="targetPoint" />
          </mxGeometry>
        </mxCell>
        <mxCell id="vj-xKCWtHXIhKeIByCAS-44" style="edgeStyle=orthogonalEdgeStyle;rounded=0;orthogonalLoop=1;jettySize=auto;html=1;startArrow=ERmany;startFill=0;endArrow=ERone;endFill=0;" edge="1" parent="1" source="vj-xKCWtHXIhKeIByCAS-12" target="vj-xKCWtHXIhKeIByCAS-38">
          <mxGeometry relative="1" as="geometry">
            <mxPoint x="600" y="560" as="sourcePoint" />
            <mxPoint x="520.0000000000002" y="378.9999999999998" as="targetPoint" />
          </mxGeometry>
        </mxCell>
        <mxCell id="vj-xKCWtHXIhKeIByCAS-5" value="factura" style="swimlane;fontStyle=0;childLayout=stackLayout;horizontal=1;startSize=26;fillColor=none;horizontalStack=0;resizeParent=1;resizeParentMax=0;resizeLast=0;collapsible=1;marginBottom=0;" vertex="1" parent="1">
          <mxGeometry x="520" y="122" width="140" height="182" as="geometry" />
        </mxCell>
        <mxCell id="vj-xKCWtHXIhKeIByCAS-6" value="num_factura(PK)" style="text;strokeColor=none;fillColor=none;align=left;verticalAlign=top;spacingLeft=4;spacingRight=4;overflow=hidden;rotatable=0;points=[[0,0.5],[1,0.5]];portConstraint=eastwest;" vertex="1" parent="vj-xKCWtHXIhKeIByCAS-5">
          <mxGeometry y="26" width="140" height="26" as="geometry" />
        </mxCell>
        <mxCell id="vj-xKCWtHXIhKeIByCAS-35" value="id_cliente(FK)&#xa;&#xa;" style="text;strokeColor=none;fillColor=none;align=left;verticalAlign=top;spacingLeft=4;spacingRight=4;overflow=hidden;rotatable=0;points=[[0,0.5],[1,0.5]];portConstraint=eastwest;" vertex="1" parent="vj-xKCWtHXIhKeIByCAS-5">
          <mxGeometry y="52" width="140" height="26" as="geometry" />
        </mxCell>
        <mxCell id="vj-xKCWtHXIhKeIByCAS-7" value="fecha_factura" style="text;strokeColor=none;fillColor=none;align=left;verticalAlign=top;spacingLeft=4;spacingRight=4;overflow=hidden;rotatable=0;points=[[0,0.5],[1,0.5]];portConstraint=eastwest;" vertex="1" parent="vj-xKCWtHXIhKeIByCAS-5">
          <mxGeometry y="78" width="140" height="26" as="geometry" />
        </mxCell>
        <mxCell id="vj-xKCWtHXIhKeIByCAS-8" value="sub_total" style="text;strokeColor=none;fillColor=none;align=left;verticalAlign=top;spacingLeft=4;spacingRight=4;overflow=hidden;rotatable=0;points=[[0,0.5],[1,0.5]];portConstraint=eastwest;" vertex="1" parent="vj-xKCWtHXIhKeIByCAS-5">
          <mxGeometry y="104" width="140" height="26" as="geometry" />
        </mxCell>
        <mxCell id="vj-xKCWtHXIhKeIByCAS-10" value="iva_factura" style="text;strokeColor=none;fillColor=none;align=left;verticalAlign=top;spacingLeft=4;spacingRight=4;overflow=hidden;rotatable=0;points=[[0,0.5],[1,0.5]];portConstraint=eastwest;" vertex="1" parent="vj-xKCWtHXIhKeIByCAS-5">
          <mxGeometry y="130" width="140" height="26" as="geometry" />
        </mxCell>
        <mxCell id="vj-xKCWtHXIhKeIByCAS-11" value="precio_total" style="text;strokeColor=none;fillColor=none;align=left;verticalAlign=top;spacingLeft=4;spacingRight=4;overflow=hidden;rotatable=0;points=[[0,0.5],[1,0.5]];portConstraint=eastwest;" vertex="1" parent="vj-xKCWtHXIhKeIByCAS-5">
          <mxGeometry y="156" width="140" height="26" as="geometry" />
        </mxCell>
        <mxCell id="vj-xKCWtHXIhKeIByCAS-45" value="1" style="text;html=1;align=center;verticalAlign=middle;resizable=0;points=[];autosize=1;" vertex="1" parent="1">
          <mxGeometry x="240" y="165" width="20" height="20" as="geometry" />
        </mxCell>
        <mxCell id="vj-xKCWtHXIhKeIByCAS-46" value="n" style="text;html=1;align=center;verticalAlign=middle;resizable=0;points=[];autosize=1;" vertex="1" parent="1">
          <mxGeometry x="500" y="160" width="20" height="20" as="geometry" />
        </mxCell>
        <mxCell id="vj-xKCWtHXIhKeIByCAS-47" value="1" style="text;html=1;align=center;verticalAlign=middle;resizable=0;points=[];autosize=1;" vertex="1" parent="1">
          <mxGeometry x="510" y="460" width="20" height="20" as="geometry" />
        </mxCell>
        <mxCell id="vj-xKCWtHXIhKeIByCAS-48" value="n" style="text;html=1;align=center;verticalAlign=middle;resizable=0;points=[];autosize=1;" vertex="1" parent="1">
          <mxGeometry x="580" y="310" width="20" height="20" as="geometry" />
        </mxCell>
        <mxCell id="vj-xKCWtHXIhKeIByCAS-49" value="n" style="text;html=1;align=center;verticalAlign=middle;resizable=0;points=[];autosize=1;" vertex="1" parent="1">
          <mxGeometry x="580" y="540" width="20" height="20" as="geometry" />
        </mxCell>
        <mxCell id="vj-xKCWtHXIhKeIByCAS-50" value="n" style="text;html=1;align=center;verticalAlign=middle;resizable=0;points=[];autosize=1;" vertex="1" parent="1">
          <mxGeometry x="520" y="610" width="20" height="20" as="geometry" />
        </mxCell>
        <mxCell id="vj-xKCWtHXIhKeIByCAS-51" value="1" style="text;html=1;align=center;verticalAlign=middle;resizable=0;points=[];autosize=1;" vertex="1" parent="1">
          <mxGeometry x="510" y="410" width="20" height="20" as="geometry" />
        </mxCell>
        <mxCell id="vj-xKCWtHXIhKeIByCAS-52" value="1" style="text;html=1;align=center;verticalAlign=middle;resizable=0;points=[];autosize=1;" vertex="1" parent="1">
          <mxGeometry x="240" y="610" width="20" height="20" as="geometry" />
        </mxCell>
      </root>
    </mxGraphModel>
  </diagram>
</mxfile>
